# xmcd
#
# Track frame offsets:
#	182
#	16465
#	36510
#	55957
#	76242
#	101235
#	120722
#	140900
#	160577
#	180505
#	199787
#	222830
#
# Disc length: 3301 seconds
#
# Revision: 19
# Processed by: cddbd v1.5.2PL0 Copyright (c) Steve Scherf et al.
# Submitted via: audiograbber 1.83.01
#
DISCID=aa0ce30c
DTITLE=Toni Braxton - Secrets
DYEAR=1996
DGENRE=Soul
TTITLE0=Come On Over Here
TTITLE1=You're Makin Me High
TTITLE2=There's No Me Without You
TTITLE3=Un-Break My Heart
TTITLE4=Talking In His Sleep
TTITLE5=How Could An Angel Break My Heart
TTITLE6=Find Me A Man
TTITLE7=Let It Flow
TTITLE8=Why Should I Care
TTITLE9=I Don't Want To
TTITLE10=I Love Me Some Him
TTITLE11=In The Late Of Night - I Toni's Secrets
EXTD=
EXTT0=
EXTT1=
EXTT2=
EXTT3=
EXTT4=
EXTT5=
EXTT6=
EXTT7=
EXTT8=
EXTT9=
EXTT10=
EXTT11=
PLAYORDER=
